<svg version="1.1" id="Layer_1" xmlns="http://www.w3.org/2000/svg" xmlns:xlink="http://www.w3.org/1999/xlink" x="0px" y="0px"
	 width="100%" viewBox="0 0 500 500" enable-background="new 0 0 500 500" xml:space="preserve">
<path fill="#FFFFFF" opacity="1.000000" stroke="none" 
	d="
M272.000000,501.000000 
	C181.333359,501.000000 91.166710,501.000000 1.000048,501.000000 
	C1.000032,334.333405 1.000032,167.666794 1.000016,1.000138 
	C167.666565,1.000092 334.333130,1.000092 500.999756,1.000046 
	C500.999847,167.666519 500.999847,334.333038 500.999939,500.999786 
	C424.833344,501.000000 348.666656,501.000000 272.000000,501.000000 
M114.541611,258.323151 
	C117.620918,260.709473 121.662262,262.454773 120.967430,267.454376 
	C120.206215,272.931580 113.875923,276.407349 108.248314,273.983643 
	C104.689171,272.450806 101.554657,269.932007 97.881638,267.638031 
	C94.428909,271.664337 90.903717,275.775146 87.432152,279.823395 
	C95.703011,290.022003 109.372108,294.220856 120.830124,290.347168 
	C132.370529,286.445648 138.803955,277.492767 140.094620,264.828156 
	C143.583847,265.859528 147.073074,266.890900 150.433762,268.859894 
	C150.433762,276.093933 150.433762,283.327942 150.433762,290.529419 
	C156.521942,290.529419 161.902603,290.529419 167.797470,290.529419 
	C167.797470,284.086670 167.797470,277.987518 168.636597,271.825500 
	C177.034958,273.235931 185.433304,274.646362 194.057938,276.716248 
	C196.700348,280.503876 199.246704,284.364594 202.040390,288.037170 
	C202.944321,289.225403 204.449020,290.624146 205.761780,290.713867 
	C210.480423,291.036346 215.234482,290.840454 220.514832,290.840454 
	C220.514832,286.456085 220.514832,282.535309 221.504715,278.477417 
	C229.253006,278.835999 237.001297,279.194611 245.154205,280.180328 
	C257.179169,292.135315 271.600281,294.051758 287.161041,289.585022 
	C294.783142,287.397095 301.312775,283.066803 306.291779,275.724945 
	C315.856934,274.136505 325.422119,272.548065 335.115875,271.765808 
	C336.410431,277.087921 337.665558,282.420166 339.033234,287.723419 
	C339.302765,288.768463 339.969177,290.531952 340.515228,290.556244 
	C345.312103,290.769684 350.127960,290.761292 354.923767,290.525360 
	C355.500366,290.496979 356.235077,288.780975 356.482697,287.747986 
	C358.378662,279.839294 360.172089,271.906067 362.588318,263.545013 
	C365.675201,262.541931 368.762085,261.538849 372.001312,261.405182 
	C374.357269,271.190521 376.713226,280.975891 379.057892,290.714294 
	C384.595337,290.714294 389.561127,290.714294 395.055084,290.714294 
	C397.069733,282.365479 399.203094,274.038330 401.063599,265.650665 
	C402.524506,259.064423 403.648193,252.403412 405.303558,245.224915 
	C412.956940,239.924820 421.157257,235.262955 426.449707,226.996323 
	C371.393463,255.178970 312.144775,263.536133 251.422211,264.067993 
	C190.603806,264.600677 131.256805,256.364441 75.356285,230.198929 
	C75.105209,230.754059 74.854126,231.309204 74.603050,231.864334 
	C80.874504,236.331207 87.145958,240.798096 93.516449,245.854660 
	C94.916557,247.460526 96.013206,249.657028 97.773666,250.561508 
	C103.049278,253.271973 108.584335,255.477463 114.541611,258.323151 
M313.317902,244.036041 
	C308.952240,219.937302 287.244507,206.074432 262.991577,211.896896 
	C244.723785,216.282486 230.059402,238.039368 234.865433,253.729828 
	C240.422791,253.729828 245.997269,253.729828 251.525360,253.729828 
	C253.552429,235.668579 259.268097,227.399704 271.322571,226.714157 
	C276.022400,226.446884 281.348877,227.787170 285.541473,230.001633 
	C293.888062,234.410172 295.524597,243.029282 296.106110,252.048553 
	C302.280182,251.362915 307.860565,250.743210 313.848694,250.078232 
	C313.704956,248.099640 313.587036,246.476746 313.317902,244.036041 
M167.693848,245.938156 
	C167.798416,244.424210 167.902969,242.910278 168.028900,241.086746 
	C170.878601,244.190582 172.867569,248.303452 175.794006,249.141083 
	C181.978363,250.911224 188.652695,250.969574 196.277695,251.865402 
	C186.595001,238.276718 177.755798,225.832230 168.838089,213.444260 
	C168.232773,212.603378 167.054138,211.689331 166.113022,211.657013 
	C161.017654,211.482010 155.913132,211.574020 150.426010,211.574020 
	C150.426010,219.497818 150.426010,226.789566 150.426010,234.081299 
	C150.426010,245.607941 150.414520,245.683243 161.946198,247.442749 
	C163.764786,247.720230 165.740952,246.965012 167.693848,245.938156 
M92.857422,222.291519 
	C92.091789,224.389801 91.326157,226.488098 90.432312,228.937775 
	C96.447723,230.964508 101.814453,232.772705 107.319160,234.627380 
	C108.802986,224.242157 112.042969,223.574936 126.679512,230.077560 
	C130.010086,226.440704 133.440887,222.694412 136.856659,218.964539 
	C124.800407,206.821472 102.352005,206.757645 92.857422,222.291519 
M203.831726,246.329910 
	C203.831726,248.135468 203.831726,249.941010 203.831726,252.354172 
	C209.421860,252.683868 214.648056,252.992111 220.089386,253.313034 
	C220.089386,239.149429 220.089386,225.487228 220.089386,211.820175 
	C214.556992,211.820175 209.445602,211.820175 203.831635,211.820175 
	C203.831635,223.163345 203.831635,234.266266 203.831726,246.329910 
M332.567291,247.531906 
	C336.273834,246.826202 339.980377,246.120483 344.032501,245.348984 
	C341.280426,233.856888 338.631409,222.795166 336.027435,211.921478 
	C330.792267,211.921478 326.087158,211.921478 320.890808,211.921478 
	C323.569214,223.334015 326.078094,234.299194 328.811462,245.208115 
	C329.060944,246.203827 330.749329,246.839020 332.567291,247.531906 
M359.895844,220.043472 
	C358.056274,227.541367 356.216705,235.039276 354.129730,243.545639 
	C363.125244,241.307175 370.953735,239.359131 379.166992,237.315338 
	C377.354523,229.664490 375.693359,222.570633 373.978546,215.489761 
	C373.671417,214.221405 373.142456,213.006775 372.748047,211.860687 
	C361.870636,210.868317 361.870636,210.868317 359.895844,220.043472 
M395.269775,226.499420 
	C394.925842,228.212997 394.581909,229.926575 394.195404,231.852142 
	C409.128571,229.091370 413.105225,224.927429 413.564056,211.550095 
	C409.453857,211.550095 405.341858,211.380432 401.262146,211.668259 
	C400.230133,211.741074 398.754974,213.103058 398.423187,214.165970 
	C397.241364,217.951950 396.464539,221.864365 395.269775,226.499420 
z"/>
<path fill="#FC2A31" opacity="1.000000" stroke="none" 
	d="
M244.749588,279.553223 
	C237.001297,279.194611 229.253006,278.835999 220.684616,278.404602 
	C211.186890,277.573425 202.509277,276.815094 193.831650,276.056763 
	C185.433304,274.646362 177.034958,273.235931 167.909241,271.657104 
	C161.642029,270.299866 156.102158,269.111084 150.562302,267.922241 
	C147.073074,266.890900 143.583847,265.859528 139.418610,264.590637 
	C131.805176,262.232056 124.867744,260.110992 117.746048,257.708557 
	C109.513664,253.373123 101.465538,249.319046 93.417412,245.264969 
	C87.145958,240.798096 80.874504,236.331207 74.603050,231.864334 
	C74.854126,231.309204 75.105209,230.754059 75.356285,230.198929 
	C131.256805,256.364441 190.603806,264.600677 251.422211,264.067993 
	C312.144775,263.536133 371.393463,255.178970 426.449707,226.996323 
	C421.157257,235.262955 412.956940,239.924820 404.753967,245.566559 
	C398.996063,248.612274 393.787750,251.316345 388.276245,254.054443 
	C386.580414,254.768463 385.187744,255.448456 383.398560,256.169617 
	C379.284363,257.652435 375.566650,259.094116 371.848969,260.535767 
	C368.762085,261.538849 365.675201,262.541931 361.899963,263.767273 
	C352.470184,266.312897 343.728729,268.636261 334.987274,270.959625 
	C325.422119,272.548065 315.856934,274.136505 305.441467,275.790344 
	C291.899017,276.847748 279.214233,277.950592 266.511963,278.788879 
	C259.272552,279.266663 252.004654,279.312775 244.749588,279.553223 
z"/>
<path fill="#0A56B3" opacity="1.000000" stroke="none" 
	d="
M313.393524,244.444946 
	C313.587036,246.476746 313.704956,248.099640 313.848694,250.078232 
	C307.860565,250.743210 302.280182,251.362915 296.106110,252.048553 
	C295.524597,243.029282 293.888062,234.410172 285.541473,230.001633 
	C281.348877,227.787170 276.022400,226.446884 271.322571,226.714157 
	C259.268097,227.399704 253.552429,235.668579 251.525360,253.729828 
	C245.997269,253.729828 240.422791,253.729828 234.865433,253.729828 
	C230.059402,238.039368 244.723785,216.282486 262.991577,211.896896 
	C287.244507,206.074432 308.952240,219.937302 313.393524,244.444946 
z"/>
<path fill="#0D58B4" opacity="1.000000" stroke="none" 
	d="
M167.669052,246.312714 
	C165.740952,246.965012 163.764786,247.720230 161.946198,247.442749 
	C150.414520,245.683243 150.426010,245.607941 150.426010,234.081299 
	C150.426010,226.789566 150.426010,219.497818 150.426010,211.574020 
	C155.913132,211.574020 161.017654,211.482010 166.113022,211.657013 
	C167.054138,211.689331 168.232773,212.603378 168.838089,213.444260 
	C177.755798,225.832230 186.595001,238.276718 196.277695,251.865402 
	C188.652695,250.969574 181.978363,250.911224 175.794006,249.141083 
	C172.867569,248.303452 170.878601,244.190582 168.028900,241.086746 
	C167.902969,242.910278 167.798416,244.424210 167.669052,246.312714 
z"/>
<path fill="#0A56B3" opacity="1.000000" stroke="none" 
	d="
M117.930305,257.989899 
	C124.867744,260.110992 131.805176,262.232056 138.986511,264.546997 
	C138.803955,277.492767 132.370529,286.445648 120.830124,290.347168 
	C109.372108,294.220856 95.703011,290.022003 87.432152,279.823395 
	C90.903717,275.775146 94.428909,271.664337 97.881638,267.638031 
	C101.554657,269.932007 104.689171,272.450806 108.248314,273.983643 
	C113.875923,276.407349 120.206215,272.931580 120.967430,267.454376 
	C121.662262,262.454773 117.620918,260.709473 114.481445,257.873047 
	C115.590958,257.611908 116.760635,257.800903 117.930305,257.989899 
z"/>
<path fill="#0A55B2" opacity="1.000000" stroke="none" 
	d="
M388.579407,254.020416 
	C393.787750,251.316345 398.996063,248.612274 404.563049,245.841919 
	C403.648193,252.403412 402.524506,259.064423 401.063599,265.650665 
	C399.203094,274.038330 397.069733,282.365479 395.055084,290.714294 
	C389.561127,290.714294 384.595337,290.714294 379.057892,290.714294 
	C376.713226,280.975891 374.357269,271.190521 371.925140,260.970459 
	C375.566650,259.094116 379.284363,257.652435 383.499878,256.604919 
	C384.476166,258.925659 384.954620,260.852234 385.433075,262.778809 
	C385.857727,262.769501 386.282379,262.760162 386.707062,262.750854 
	C387.331177,259.840698 387.955292,256.930573 388.579407,254.020416 
z"/>
<path fill="#0C57B4" opacity="1.000000" stroke="none" 
	d="
M93.031456,221.981079 
	C102.352005,206.757645 124.800407,206.821472 136.856659,218.964539 
	C133.440887,222.694412 130.010086,226.440704 126.679512,230.077560 
	C112.042969,223.574936 108.802986,224.242157 107.319160,234.627380 
	C101.814453,232.772705 96.447723,230.964508 90.432312,228.937775 
	C91.326157,226.488098 92.091789,224.389801 93.031456,221.981079 
z"/>
<path fill="#0653B2" opacity="1.000000" stroke="none" 
	d="
M203.831680,245.849548 
	C203.831635,234.266266 203.831635,223.163345 203.831635,211.820175 
	C209.445602,211.820175 214.556992,211.820175 220.089386,211.820175 
	C220.089386,225.487228 220.089386,239.149429 220.089386,253.313034 
	C214.648056,252.992111 209.421860,252.683868 203.831726,252.354172 
	C203.831726,249.941010 203.831726,248.135468 203.831680,245.849548 
z"/>
<path fill="#0F53AF" opacity="1.000000" stroke="none" 
	d="
M244.951904,279.866791 
	C252.004654,279.312775 259.272552,279.266663 266.511963,278.788879 
	C279.214233,277.950592 291.899017,276.847748 305.077881,275.922089 
	C301.312775,283.066803 294.783142,287.397095 287.161041,289.585022 
	C271.600281,294.051758 257.179169,292.135315 244.951904,279.866791 
z"/>
<path fill="#0C57B4" opacity="1.000000" stroke="none" 
	d="
M332.168396,247.586761 
	C330.749329,246.839020 329.060944,246.203827 328.811462,245.208115 
	C326.078094,234.299194 323.569214,223.334015 320.890808,211.921478 
	C326.087158,211.921478 330.792267,211.921478 336.027435,211.921478 
	C338.631409,222.795166 341.280426,233.856888 344.032501,245.348984 
	C339.980377,246.120483 336.273834,246.826202 332.168396,247.586761 
z"/>
<path fill="#0C57B4" opacity="1.000000" stroke="none" 
	d="
M359.986359,219.643738 
	C361.870636,210.868317 361.870636,210.868317 372.748047,211.860687 
	C373.142456,213.006775 373.671417,214.221405 373.978546,215.489761 
	C375.693359,222.570633 377.354523,229.664490 379.166992,237.315338 
	C370.953735,239.359131 363.125244,241.307175 354.129730,243.545639 
	C356.216705,235.039276 358.056274,227.541367 359.986359,219.643738 
z"/>
<path fill="#0C57B4" opacity="1.000000" stroke="none" 
	d="
M335.051575,271.362732 
	C343.728729,268.636261 352.470184,266.312897 361.604492,263.984985 
	C360.172089,271.906067 358.378662,279.839294 356.482697,287.747986 
	C356.235077,288.780975 355.500366,290.496979 354.923767,290.525360 
	C350.127960,290.761292 345.312103,290.769684 340.515228,290.556244 
	C339.969177,290.531952 339.302765,288.768463 339.033234,287.723419 
	C337.665558,282.420166 336.410431,277.087921 335.051575,271.362732 
z"/>
<path fill="#155CB5" opacity="1.000000" stroke="none" 
	d="
M150.498032,268.391083 
	C156.102158,269.111084 161.642029,270.299866 167.489685,271.688538 
	C167.797470,277.987518 167.797470,284.086670 167.797470,290.529419 
	C161.902603,290.529419 156.521942,290.529419 150.433762,290.529419 
	C150.433762,283.327942 150.433762,276.093933 150.498032,268.391083 
z"/>
<path fill="#0F53AF" opacity="1.000000" stroke="none" 
	d="
M193.944794,276.386505 
	C202.509277,276.815094 211.186890,277.573425 220.189667,278.473145 
	C220.514832,282.535309 220.514832,286.456085 220.514832,290.840454 
	C215.234482,290.840454 210.480423,291.036346 205.761780,290.713867 
	C204.449020,290.624146 202.944321,289.225403 202.040390,288.037170 
	C199.246704,284.364594 196.700348,280.503876 193.944794,276.386505 
z"/>
<path fill="#0D58B4" opacity="1.000000" stroke="none" 
	d="
M395.402100,226.114166 
	C396.464539,221.864365 397.241364,217.951950 398.423187,214.165970 
	C398.754974,213.103058 400.230133,211.741074 401.262146,211.668259 
	C405.341858,211.380432 409.453857,211.550095 413.564056,211.550095 
	C413.105225,224.927429 409.128571,229.091370 394.195404,231.852142 
	C394.581909,229.926575 394.925842,228.212997 395.402100,226.114166 
z"/>
<path fill="#3A5BA7" opacity="1.000000" stroke="none" 
	d="
M117.746048,257.708557 
	C116.760635,257.800903 115.590958,257.611908 114.219704,257.651489 
	C108.584335,255.477463 103.049278,253.271973 97.773666,250.561508 
	C96.013206,249.657028 94.916557,247.460526 93.466934,245.559814 
	C101.465538,249.319046 109.513664,253.373123 117.746048,257.708557 
z"/>
<path fill="#FFFFFF" opacity="1.000000" stroke="none" 
	d="
M388.276245,254.054443 
	C387.955292,256.930573 387.331177,259.840698 386.707062,262.750854 
	C386.282379,262.760162 385.857727,262.769501 385.433075,262.778809 
	C384.954620,260.852234 384.476166,258.925659 383.896393,256.563782 
	C385.187744,255.448456 386.580414,254.768463 388.276245,254.054443 
z"/>
</svg>